<svg width="109" height="144" viewBox="0 0 109 144" fill="none" xmlns="http://www.w3.org/2000/svg">
<g clip-path="url(#clip0_23_34)">
<path d="M62.59 21.9102H42.24V62.9802C39.6578 64.206 36.9828 65.2258 34.24 66.0302C32.83 66.4502 31.24 66.8102 29.6 67.1202V23.7802C29.6 23.7802 29.96 17.5502 26.5 15.4502V14.6702H59C60.6944 16.803 61.918 19.2705 62.59 21.9102ZM68.32 78.0802C83.06 71.0102 90.17 58.5702 90.32 44.3102C90.41 34.6102 86.99 28.6502 83.16 25.4802C82.9333 25.2935 82.7 25.1169 82.46 24.9502C82.2079 23.815 81.8975 22.6935 81.53 21.5902C80.8095 19.4098 79.8959 17.2981 78.8 15.2802C79.5 15.3802 80.16 15.5002 80.74 15.6202C91.43 17.8902 100.03 24.2102 104.09 36.4002C107.4 46.3402 105.8 58.6702 98.68 68.5602C95.4488 72.7429 91.6409 76.4465 87.37 79.5602C86.44 80.2202 85.88 80.5602 84.89 81.2102C91.33 91.5302 94.51 97.4602 98.62 108.73C101.567 117.196 103.801 125.893 105.3 134.73C106.19 142.04 108.38 142.63 108.88 142.73V143.51H83.19V142.78C83.98 142.36 90.93 139.51 90.96 128.62C90.96 120.62 89.05 111.83 85.49 101.95C83.3285 96.1441 80.776 90.4911 77.85 85.0302L77.77 84.9002C76.0664 85.6351 74.3238 86.2761 72.55 86.8202C71.22 83.7202 69.86 80.9302 68.32 78.0902V78.0802ZM42.24 77.2202V83.8902C46.7633 83.6268 51.2655 83.0791 55.72 82.2502C56.96 85.0502 58.03 87.7102 58.78 89.7702L58.88 90.0502C56.63 90.4102 54.24 90.7402 51.53 91.0502C47.87 91.4602 44.33 91.7002 42.24 91.8402V134.97C42.24 135.92 42.46 140.97 45.77 142.78V143.56H26.05V142.78C29.26 141.09 29.58 135.92 29.58 134.97V79.5302C33.8401 79.0038 38.0669 78.2359 42.24 77.2302V77.2202ZM44.97 7.47019H42.21H16.53V70.7202C19.07 70.6102 28.53 69.8102 34.79 67.9702C55.51 61.8402 65.41 47.3502 65.57 30.3302C65.66 20.4302 62.17 14.3302 58.26 11.1202C55.9278 9.3377 53.1698 8.19656 50.26 7.81019C48.5099 7.57692 46.7456 7.46666 44.98 7.4802L44.97 7.47019ZM3.61002 122.96V9.30018C3.61002 9.30018 3.98 2.95018 0.440002 0.800182V0.000193795H44.38C48.2056 -0.00923549 52.0243 0.325446 55.79 1.00019C66.7 3.32019 75.47 9.76021 79.62 22.2002C83 32.3402 81.36 44.9302 74.1 55.0202C70.8048 59.2943 66.9194 63.0787 62.56 66.2602C61.61 66.9402 61.04 67.3202 60.03 67.9502C66.6 78.4902 69.85 84.5402 74.03 96.0302C77.0364 104.662 79.3176 113.529 80.85 122.54C81.76 130 83.99 130.75 84.5 130.91V131.71H58.31V130.91C59.12 130.48 66.21 127.42 66.24 116.3C66.24 108.14 64.24 99.1602 60.66 89.0802C58.4526 83.1541 55.8467 77.3843 52.86 71.8102L52.78 71.6802C47.7305 73.7137 42.5008 75.2672 37.16 76.3202C33.75 76.9602 30.29 77.5002 26.01 77.9702C22.28 78.3902 18.67 78.6402 16.54 78.7702V122.94C16.54 123.94 16.77 129.09 20.15 130.94V131.73H0V130.94C3.29 129.2 3.61002 123.93 3.61002 122.96Z" fill="#141414"/>
</g>
<defs>
<clipPath id="clip0_23_34">
<rect width="108.87" height="143.56" fill="white"/>
</clipPath>
</defs>
</svg>
